/* XPM */
static char * emmet_xpm[] = {
"12 12 32 1",
" 	c None",
".	c #1B1B1F",
"+	c #1A1B1E",
"@	c #1B1C1F",
"#	c #1B1C20",
"$	c #1E2122",
"%	c #2E352D",
"&	c #1C1D20",
"*	c #1D1F1F",
"=	c #242B1F",
"-	c #1F2223",
";	c #59704D",
">	c #7EA167",
",	c #8FB973",
"'	c #2E362D",
")	c #23291F",
"!	c #4A651C",
"~	c #56771B",
"{	c #52721B",
"]	c #2A331E",
"^	c #3E4C39",
"/	c #5D754F",
"(	c #22281F",
"_	c #57781B",
":	c #5E841A",
"<	c #21261F",
"[	c #20241F",
"}	c #242A1F",
"|	c #56781B",
"1	c #61881A",
"2	c #4C691B",
"3	c #191B1F",
"    .++.    ",
"  +@####@+  ",
" +#####$%&+ ",
" @#*=-;>,'@ ",
".)!~{]^/>$#.",
"+(_:<[#^;##+",
"+#}|12[]-##+",
".##}|1<{=##3",
" @##}|:~*#@ ",
" +###}_!##+ ",
"  +@##()@+  ",
"    .++.    "};
