/* XPM */
static char * rust_xpm[] = {
"15 16 2 1",
" 	c None",
".	c #000000",
"               ",
"               ",
"       ..      ",
"    .......    ",
"   ...    ..   ",
"   ....... ..  ",
"   .... ... .  ",
"  .. .....  .  ",
"  .. .. ... .  ",
"   ..... ....  ",
"   ...    ...  ",
"    ..    ..   ",
"     ......    ",
"               ",
"               ",
"               "};
