/* XPM */
static char * twitter_xpm[] = {
"34 34 551 2",
"  	c #FFFEFA",
". 	c #FBFFFD",
"+ 	c #FFFBFE",
"@ 	c #FCFFF6",
"# 	c #FBFFFF",
"$ 	c #FEFFF8",
"% 	c #FDFFFC",
"& 	c #FFFFFB",
"* 	c #FFFFFF",
"= 	c #FAFFF9",
"- 	c #FDFFFA",
"; 	c #FEFFFA",
"> 	c #FFFFFA",
", 	c #FFFFF8",
"' 	c #FFFEFF",
") 	c #FEFFFF",
"! 	c #FBFFFE",
"~ 	c #FDFDFB",
"{ 	c #FCFFFF",
"] 	c #FBFBFF",
"^ 	c #C9F2FF",
"/ 	c #3EC7EB",
"( 	c #08A8F6",
"_ 	c #00ACEF",
": 	c #00B2FB",
"< 	c #04AEEB",
"[ 	c #00AEED",
"} 	c #01A8EC",
"| 	c #00B0F3",
"1 	c #00B2F8",
"2 	c #00ACF4",
"3 	c #02A9F0",
"4 	c #02AAF1",
"5 	c #01ABF6",
"6 	c #02A9F7",
"7 	c #08AAF5",
"8 	c #00AEEA",
"9 	c #00B1E9",
"0 	c #03B0F5",
"a 	c #00ABF4",
"b 	c #00ADE8",
"c 	c #54C8ED",
"d 	c #C8ECFF",
"e 	c #F7FFFD",
"f 	c #CCEDFE",
"g 	c #05B1E3",
"h 	c #01AFEB",
"i 	c #02AEF0",
"j 	c #05ADEB",
"k 	c #01ADED",
"l 	c #01AEF2",
"m 	c #07AFED",
"n 	c #01AFEE",
"o 	c #00ACF0",
"p 	c #04ABF1",
"q 	c #03AFEF",
"r 	c #00B2EE",
"s 	c #00B1F0",
"t 	c #01ACF2",
"u 	c #00B0EA",
"v 	c #02B0ED",
"w 	c #02AEEE",
"x 	c #04B0F2",
"y 	c #00AEE9",
"z 	c #00B3EB",
"A 	c #D2ECFF",
"B 	c #FFFCFF",
"C 	c #FFFFFD",
"D 	c #33BFE3",
"E 	c #03AEF4",
"F 	c #00B2EA",
"G 	c #00B1ED",
"H 	c #00ADF0",
"I 	c #00B7F9",
"J 	c #09A7E6",
"K 	c #04ABF2",
"L 	c #00ACEE",
"M 	c #06ABEF",
"N 	c #05ADEE",
"O 	c #00B0ED",
"P 	c #00B0EB",
"Q 	c #05AFEC",
"R 	c #00ACFB",
"S 	c #03ADF8",
"T 	c #00AAEA",
"U 	c #01AEF3",
"V 	c #31BEEB",
"W 	c #FEFFFD",
"X 	c #FBFCFF",
"Y 	c #08ADF1",
"Z 	c #04ADF0",
"` 	c #00B5E7",
" .	c #07ABF2",
"..	c #09B0F6",
"+.	c #00A8EF",
"@.	c #00B4E3",
"#.	c #00ADF3",
"$.	c #00B3F0",
"%.	c #00B5EC",
"&.	c #03ACF1",
"*.	c #01ADF5",
"=.	c #00AFEF",
"-.	c #00ACE7",
";.	c #00B1E7",
">.	c #00B2E1",
",.	c #02B2EB",
"'.	c #05B0F6",
").	c #00ADF6",
"!.	c #09ADEA",
"~.	c #00ADF2",
"{.	c #FEFFFB",
"].	c #F9FFFD",
"^.	c #00A6EE",
"/.	c #01ACFC",
"(.	c #00AFF1",
"_.	c #05ACFB",
":.	c #05A6EC",
"<.	c #00ACE8",
"[.	c #00AFFD",
"}.	c #00B0EC",
"|.	c #04ACEA",
"1.	c #08AAEA",
"2.	c #08ADED",
"3.	c #00ACF1",
"4.	c #02B0F5",
"5.	c #00B0EE",
"6.	c #05ACF3",
"7.	c #09A9F3",
"8.	c #00AEEF",
"9.	c #01AEE6",
"0.	c #03ADE8",
"a.	c #00ADEC",
"b.	c #00B3F6",
"c.	c #01B1EC",
"d.	c #07AAF5",
"e.	c #00B1E3",
"f.	c #02B7EE",
"g.	c #01ACF1",
"h.	c #00B4EE",
"i.	c #04ABFA",
"j.	c #06AFE8",
"k.	c #04AEEC",
"l.	c #04B1F3",
"m.	c #06AAF2",
"n.	c #06A9F6",
"o.	c #01AFF8",
"p.	c #02AEF6",
"q.	c #06AAF1",
"r.	c #04ABEF",
"s.	c #00B1F1",
"t.	c #01AFEC",
"u.	c #FEFDFB",
"v.	c #00ADE7",
"w.	c #07ABF3",
"x.	c #09ACE5",
"y.	c #04AFFD",
"z.	c #00ADEA",
"A.	c #08ACF4",
"B.	c #03ADE1",
"C.	c #06AFF4",
"D.	c #00ACF8",
"E.	c #42C3ED",
"F.	c #7BD7FE",
"G.	c #63CEF8",
"H.	c #20B7E4",
"I.	c #00AFEE",
"J.	c #04ADEE",
"K.	c #00AFF0",
"L.	c #00AFF2",
"M.	c #FFFDFF",
"N.	c #FFFEFB",
"O.	c #00AEE7",
"P.	c #00B0E5",
"Q.	c #00B1EF",
"R.	c #00ABF0",
"S.	c #04ACF7",
"T.	c #00B3F9",
"U.	c #26B9EC",
"V.	c #5BCAFF",
"W.	c #0AADE8",
"X.	c #00AFF4",
"Y.	c #00B4E8",
"Z.	c #00B3F1",
"`.	c #00AEF1",
" +	c #00AAEC",
".+	c #38C0F0",
"++	c #DFEFFE",
"@+	c #FBFFF9",
"#+	c #F8FFFF",
"$+	c #FFFDF8",
"%+	c #FEFEFF",
"&+	c #91DBFF",
"*+	c #2BC4E4",
"=+	c #91DDF5",
"-+	c #D1EAFE",
";+	c #06AEF5",
">+	c #03ACEF",
",+	c #01ADF9",
"'+	c #01AEF0",
")+	c #00ADEF",
"!+	c #00AAF2",
"~+	c #03B2EB",
"{+	c #74CDF7",
"]+	c #62C4F3",
"^+	c #03AAEE",
"/+	c #01AEE8",
"(+	c #03B0EA",
"_+	c #00ABEF",
":+	c #05ADF6",
"<+	c #06A9F4",
"[+	c #00AFEB",
"}+	c #27B9EA",
"|+	c #EBF8FF",
"1+	c #FAFEF0",
"2+	c #FFFAFF",
"3+	c #FFF9FF",
"4+	c #FCFDFF",
"5+	c #EEF4FF",
"6+	c #4FD1E9",
"7+	c #35B5FE",
"8+	c #03ABEC",
"9+	c #00B1F4",
"0+	c #00B4E2",
"a+	c #04ADF2",
"b+	c #03AEF6",
"c+	c #01B3F1",
"d+	c #00ABE4",
"e+	c #05A9DE",
"f+	c #90D5FC",
"g+	c #FFFFF2",
"h+	c #A1E4FF",
"i+	c #1AB0EB",
"j+	c #00A9EC",
"k+	c #0AB2F3",
"l+	c #00B3EA",
"m+	c #05AFFA",
"n+	c #9ADFFE",
"o+	c #FCFFF1",
"p+	c #FEFFF4",
"q+	c #FEF9FD",
"r+	c #FFFDFB",
"s+	c #F9FDFC",
"t+	c #FFFDF4",
"u+	c #F5FFFF",
"v+	c #F4F4FF",
"w+	c #25C2F9",
"x+	c #01B6EF",
"y+	c #00AFEC",
"z+	c #05AAFC",
"A+	c #01AEEA",
"B+	c #00AEEC",
"C+	c #00AFEA",
"D+	c #05ADEC",
"E+	c #06B4F3",
"F+	c #69DAFF",
"G+	c #FDFEFF",
"H+	c #ECF9FF",
"I+	c #84D7FF",
"J+	c #19ADED",
"K+	c #00ABF3",
"L+	c #C4EEFC",
"M+	c #F7FFFF",
"N+	c #FCFFF2",
"O+	c #FEFFED",
"P+	c #CCECF9",
"Q+	c #3ABAE9",
"R+	c #00AFE4",
"S+	c #11A8ED",
"T+	c #03AFF1",
"U+	c #FDFBFE",
"V+	c #03ACED",
"W+	c #30B7E6",
"X+	c #FFFEFD",
"Y+	c #F6FFF9",
"Z+	c #F7FFF9",
"`+	c #FEFEFE",
" @	c #C4EAF3",
".@	c #7FD7FB",
"+@	c #5BC7EE",
"@@	c #C9EBF7",
"#@	c #FFFCFD",
"$@	c #FCFEFB",
"%@	c #F4FFFE",
"&@	c #F4FFFF",
"*@	c #FFFDFE",
"=@	c #84D9FF",
"-@	c #01B0EF",
";@	c #00B4ED",
">@	c #00B2F0",
",@	c #01AAE5",
"'@	c #00ADF4",
")@	c #00B3F2",
"!@	c #00ABEE",
"~@	c #03AAF8",
"{@	c #08ABF6",
"]@	c #00A9EF",
"^@	c #00B2F1",
"/@	c #5CC9F4",
"(@	c #89DEF3",
"_@	c #FFFAF6",
":@	c #F7FFF4",
"<@	c #FBFFF6",
"[@	c #FCFFFA",
"}@	c #F6FFFF",
"|@	c #F6FDFF",
"1@	c #F9FFFF",
"2@	c #FBFFFC",
"3@	c #FDFDFF",
"4@	c #F8FFFA",
"5@	c #3DBEFF",
"6@	c #08ACEB",
"7@	c #03B0F4",
"8@	c #00AEEE",
"9@	c #02AFF4",
"0@	c #02B4F0",
"a@	c #76D7FF",
"b@	c #FFFDFA",
"c@	c #FFFAFE",
"d@	c #FFF6FF",
"e@	c #FFFBFF",
"f@	c #FFFBF6",
"g@	c #F9FEFA",
"h@	c #FFF7F7",
"i@	c #FFFCFB",
"j@	c #2FBCF2",
"k@	c #02AFF1",
"l@	c #05B3E5",
"m@	c #00AAFC",
"n@	c #00ADE9",
"o@	c #04B1E9",
"p@	c #00B0E9",
"q@	c #04B2F1",
"r@	c #4BBEED",
"s@	c #F7FFFE",
"t@	c #F8FBFF",
"u@	c #FDFFFE",
"v@	c #F2FFFF",
"w@	c #FFFBFA",
"x@	c #FCFCFC",
"y@	c #FCFFFD",
"z@	c #EFF7FA",
"A@	c #03AEF3",
"B@	c #00ACE6",
"C@	c #00AFF5",
"D@	c #04B1F6",
"E@	c #00A9E6",
"F@	c #02B1EA",
"G@	c #00AFED",
"H@	c #01B0F3",
"I@	c #02B0EF",
"J@	c #00ACEB",
"K@	c #00B2EB",
"L@	c #90DAFF",
"M@	c #FBFEFF",
"N@	c #FAFCFB",
"O@	c #F9FEF8",
"P@	c #FCFFFB",
"Q@	c #FFF9FC",
"R@	c #9CE4FC",
"S@	c #05AFED",
"T@	c #00ABFE",
"U@	c #04AFE7",
"V@	c #00B1E8",
"W@	c #02A8F4",
"X@	c #00B3EF",
"Y@	c #FFFBFD",
"Z@	c #01AFF4",
"`@	c #00ACEC",
" #	c #03B0F2",
".#	c #09ABF3",
"+#	c #01AAED",
"@#	c #05ACE1",
"##	c #8EDDFE",
"$#	c #F7F2F6",
"%#	c #F9FEFF",
"&#	c #FCFEFF",
"*#	c #3BC5EA",
"=#	c #00ADEE",
"-#	c #09B1F2",
";#	c #00ACE9",
">#	c #00B0F0",
",#	c #00B0EF",
"'#	c #06ABFB",
")#	c #02AFE7",
"!#	c #C7F2FB",
"~#	c #FFFCFA",
"{#	c #FBFDFF",
"]#	c #FCFFF4",
"^#	c #FDFAFF",
"/#	c #FFFEFC",
"(#	c #FEFDF8",
"_#	c #A5E2FF",
":#	c #00B3E5",
"<#	c #00B5F5",
"[#	c #07ACE6",
"}#	c #02ADF5",
"|#	c #05A8E9",
"1#	c #0DAAF1",
"2#	c #09AEF0",
"3#	c #00AFE7",
"4#	c #00ADE2",
"5#	c #05B2DD",
"6#	c #00B4FB",
"7#	c #2ABDDE",
"8#	c #EDF3FF",
"9#	c #FFF9FB",
"0#	c #FDFEF8",
"a#	c #ECFFFC",
"b#	c #FEFDFF",
"c#	c #F2FBF6",
"d#	c #24B0EB",
"e#	c #00ADE6",
"f#	c #00B6F6",
"g#	c #00A6ED",
"h#	c #04B0F0",
"i#	c #06AFF2",
"j#	c #00ACEA",
"k#	c #00B1F5",
"l#	c #0AACF4",
"m#	c #1BB4EE",
"n#	c #7FD4F9",
"o#	c #C9F1F0",
"p#	c #FBFFF5",
"q#	c #FFF8FF",
"r#	c #FDF6FE",
"s#	c #EFF8FF",
"t#	c #31BEE9",
"u#	c #00ADF7",
"v#	c #0BADEE",
"w#	c #00AEF2",
"x#	c #00AAF6",
"y#	c #03A9F3",
"z#	c #06B2F2",
"A#	c #00B1E6",
"B#	c #1BB3FE",
"C#	c #79D2FC",
"D#	c #F9FDFF",
"E#	c #FBF7FF",
"F#	c #FFF7FF",
"G#	c #FFFFF4",
"H#	c #FFF9F7",
"I#	c #FFFAEE",
"J#	c #30BDF2",
"K#	c #00B0F2",
"L#	c #00AEF5",
"M#	c #00ABF5",
"N#	c #00A7F1",
"O#	c #08B1F2",
"P#	c #02AAE8",
"Q#	c #02ADF2",
"R#	c #FBFFFA",
"S#	c #04ADE6",
"T#	c #08ABF0",
"U#	c #00B0F1",
"V#	c #08B1EA",
"W#	c #49BFED",
"X#	c #84DDFB",
"Y#	c #B5E7F2",
"Z#	c #D4EAFF",
"`#	c #FFFEF6",
" $	c #F8FFFB",
".$	c #FFFEF4",
"+$	c #F6FFFC",
"@$	c #B5E7FF",
"#$	c #10B4E9",
"$$	c #09AFE9",
"%$	c #02AAEB",
"&$	c #03ADEB",
"*$	c #03ABF2",
"=$	c #02AEEC",
"-$	c #17BEEA",
";$	c #85DEFC",
">$	c #F6FAFF",
",$	c #FBFDFA",
"'$	c #FAFFFF",
")$	c #F5FFFA",
"!$	c #F2F8FF",
"~$	c #A6DBFB",
"{$	c #3AC2F6",
"]$	c #00B3F3",
"^$	c #00B1EA",
"/$	c #06ABED",
"($	c #00B2F2",
"_$	c #01B0E9",
":$	c #02ACF7",
"<$	c #04A7F6",
"[$	c #05AFEA",
"}$	c #03B1FA",
"|$	c #01B0F1",
"1$	c #08B1EC",
"2$	c #2EB9F0",
"3$	c #57C5F6",
"4$	c #7AD5FF",
"5$	c #80D8FE",
"6$	c #77D4F6",
"7$	c #68CBEB",
"8$	c #1EC0FF",
"9$	c #0BAEEF",
"0$	c #01ABE9",
"a$	c #00B5F3",
"b$	c #00A8EB",
"c$	c #03AAF1",
"d$	c #02ACE9",
"e$	c #04AEE9",
"f$	c #02AAE9",
"g$	c #F9FFFB",
"h$	c #01B1ED",
"i$	c #02ACEA",
"j$	c #00B6E9",
"k$	c #07ACEC",
"l$	c #02B0EC",
"m$	c #00B1EC",
"n$	c #01ADEF",
"o$	c #03A6F3",
"p$	c #09AFED",
"q$	c #00ADF1",
"r$	c #00B2E8",
"s$	c #00AFE3",
"t$	c #01B0FF",
"u$	c #06ACFA",
"v$	c #08ACF3",
"w$	c #09A9F7",
"x$	c #06A7F5",
"y$	c #03ABF4",
"z$	c #00AEF3",
"A$	c #00B2F4",
"B$	c #00B1FF",
"C$	c #06AEEF",
"D$	c #00B0E7",
"E$	c #00B1EB",
"F$	c #00ABF1",
"G$	c #41BBE4",
"H$	c #00AEF4",
"I$	c #00B0F4",
"J$	c #04ACF3",
"K$	c #02ADF3",
"L$	c #31BFF1",
"M$	c #FEFEFC",
"N$	c #FFFDF7",
"O$	c #CBEFFF",
"P$	c #07A8EC",
"Q$	c #05ACF0",
"R$	c #C9F0FF",
"S$	c #C9EFFF",
"T$	c #46C0EF",
"U$	c #00ACF2",
"V$	c #43C1F4",
"W$	c #CFF0FF",
"X$	c #FFFDFC",
"Y$	c #FEFCFF",
"Z$	c #FCFEFD",
"  . + @ # $ % & * * * * * * * * * % = - & ; > , ' ) ! ) ' ' ~ > + & ",
"{ ] ^ / ( _ : < [ [ [ [ [ [ [ [ } | 1 2 3 4 5 6 7 8 9 0 a b c d e * ",
"  f g h i 2 j k l l l l l l l l m n o p q r s t u v w i x w y z A B ",
"C D E F G H I J [ [ [ [ [ [ [ [ K H L M N O P Q R S p T L U 5 5 V W ",
"X Y Z `  ...+.@.[ [ [ [ [ [ [ [ #.$.%.[ &.*.=.-.Z ;.>.,.'.).o !.~.{.",
"].^./.(._.:.<.[.=.=.=.=.=.=.=.=.}.|.1.2.l 3.~.4.5.6.7.8.;.9.0.a.8.* ",
"& b.c.}.d.e.f.<.g.g.g.g.g.g.g.g.h.*.i.).}.j.k.(.l.m.n.o.p.q.r.s.t.' ",
"u.v.w.x.;.y.z.A.[ [ [ [ [ [ [ [ B.C.D.< E.F.G.H.a.k I.G O J.K.s L.M.",
"N.O.P.Q.R.S.T.U.V.W.X.n Y.Z.3.,.`. +.+++@+#+$+%+&+*+=+-+;+9.>+,+'+) ",
"M.s.)+!+L.I.~+{+) ]+^+/+(+_+:+<+[+}+|+{ B 1+#+2+3+4+5+6+7+8+9+0+'+) ",
"2+_ a+b+c+d+e+f+g+; h+i+j+k+a.l+m+n+o+p+q+r+3+s+t+u+C v+w+x+y+z+'+) ",
"' a.A+B+C+D+E+F+G+u+) H+I+J+g.Q.K+L+=   M+2+N+M+> O+P+Q+R+a.S+T+'+) ",
"U+G P 8.V+w.H W+X+Y+Z+`+X+@  @.@+@@@#@#+{ $@%@C &@*@=@-@;@>@,@'@'+) ",
"B )@!@~@{@]@^@/@(@# _@:@<@[@}@*@|@1@2@M+3+> M.3@4@G+5@6@ +J.7@*.'+) ",
"M.8@ +S 9@!@0@a@b@c@N.C d@e@{.' f@g@M.h@B c@% ) i@2+j@k@=.8@l@m@'+) ",
"' n@o@C+p@q@a.r@s@) t@{ & , u@e@e@#+#+> v@#+w@x@y@z@A@B@C@D@E@F@'+) ",
"y@G@C@H@I@B+J@K@L@M@{.1@' N@4+2+O@e@2+> P@*@* N.Q@R@S@T@U@V@W@X@'+) ",
"Y@q Z@`@a. #.#+#@###$#M.%#p+N.}@#+& { ! i@G+# #+&#*#=#-#;#A@k@>#'+) ",
"{ ,#(.[+J.b+'#R )#!#> ~#W {#%#; ]#^#* - /#N.(#M._#:#<#[#H }#8 L '+) ",
"/#|#1#2#8 3#4#5#6#7#8#1@e 9#' (#M.0#b@B a#> b#c#d#e#f#g#h#G '+i#'+) ",
"#+O [ j#i 1 k#O C+l#m#n#o#p#* #@q#C r#M+{ %+s#t#u#v#w#S j -.:+a.'+) ",
"B L [ [+U x#y#z#H@A#B#C#D#2+E#M+> F#G#H#I#s#J#K#L#M#N#O#P#Q#0 G '+) ",
"R#S#T#U U#V#W#X#Y#Z## # s+`# $.$> +$#+].@$#$$$%$&$C@*$=$J@q J@H '+) ",
"# 5.8.8@o.a !.-$;$>$,$M+' '$B P@)$!$~${$]$p.u#I@^$0./$L#($P._$:$'+) ",
"r+<$[$}$4 |$b Z s 1$2$3$4$5$6$7$8$9$0$n a.8.k@i '+'+'+'+'+'+'+'+Q#G+",
"O@a$n@b$;@c$w L C@`.=$d$e$j#k@H@9$f$j#-@[ =#'+L '+'+'+'+'+'+'+'+P > ",
"g$P h$i$j$K p (.k$k.l$u m$a.i a+0$j#I@I.B+8.'+n$'+'+'+'+'+'+'+'+K   ",
"u@o$a.p$&$=.m.^@w#q$q$`.^@m$r$s$n -@I.B+=.K.'+n$'+'+'+'+'+'+'+'+`.) ",
"M.t$J@i$u$3#v$8@g.6.7 w$x$y$z$A$a.[ B+=.|$k@)+n$'+'+'+'+'+'+'+'+}.u@",
"{ 8.5.8.B$3#C$o D$E$}.I@L n$L w 8.=#8.K.k@)+L '+'+'+'+'+'+'+'+'+F${.",
"- G$y z$H$< =$I$J$K$_+=.8@s.8.K.k@'+'+'+)+L )+K.'+'+'+'+'+'+'+'+L$M$",
"N$O$P :+P$Q$}.I$H K.a.h$8 I.H ~.i L n$n$n$'+K.=#'+'+'+'+'+'+'+'+R$e@",
"W ' S$T$,#9+`@s '+'+'+'+'+'+'+'+'+'+'+'+'+'+'+'+H$8 K#U$I.s V$W$* * ",
"C M$) ) C X$' Y$) ) ) ) ) ) ) ) ) ) ) ) ) ) ) ) ) C i@X+C Z${ & * * "};
